<?xml version="1.0" encoding="UTF-8" standalone="no"?>
<!-- Generator: Adobe Illustrator 16.0.0, SVG Export Plug-In . SVG Version: 6.00 Build 0)  -->

<svg
   xmlns:dc="http://purl.org/dc/elements/1.1/"
   xmlns:cc="http://creativecommons.org/ns#"
   xmlns:rdf="http://www.w3.org/1999/02/22-rdf-syntax-ns#"
   xmlns:svg="http://www.w3.org/2000/svg"
   xmlns="http://www.w3.org/2000/svg"
   xmlns:sodipodi="http://sodipodi.sourceforge.net/DTD/sodipodi-0.dtd"
   xmlns:inkscape="http://www.inkscape.org/namespaces/inkscape"
   version="1.1"
   id="Capa_1"
   x="0px"
   y="0px"
   width="612px"
   height="612px"
   viewBox="0 0 612 612"
   style="enable-background:new 0 0 612 612;"
   xml:space="preserve"
   inkscape:version="0.91 r13725"
   sodipodi:docname="email.svg"><metadata
     id="metadata41"><rdf:RDF><cc:Work
         rdf:about=""><dc:format>image/svg+xml</dc:format><dc:type
           rdf:resource="http://purl.org/dc/dcmitype/StillImage" /></cc:Work></rdf:RDF></metadata><defs
     id="defs39" /><sodipodi:namedview
     pagecolor="#ffffff"
     bordercolor="#666666"
     borderopacity="1"
     objecttolerance="10"
     gridtolerance="10"
     guidetolerance="10"
     inkscape:pageopacity="0"
     inkscape:pageshadow="2"
     inkscape:window-width="1301"
     inkscape:window-height="744"
     id="namedview37"
     showgrid="false"
     inkscape:zoom="0.38562092"
     inkscape:cx="-80.389827"
     inkscape:cy="306"
     inkscape:window-x="65"
     inkscape:window-y="24"
     inkscape:window-maximized="1"
     inkscape:current-layer="g3" /><g
     id="g3"
     transform="matrix(0.90677966,0,0,0.90677966,28.525424,28.525877)"><path
       d="m 306.768,346.814 0.131,0 c 4.615,0 9.176,-1.339 12.866,-3.777 l 1.001,-0.643 c 0.218,-0.142 0.446,-0.271 0.675,-0.424 l 11.658,-9.645 278.259,-229.624 c -0.576,-0.795 -1.557,-1.339 -2.602,-1.339 l -605.523,0 c -0.751,0 -1.448,0.272 -2.003,0.729 l 291.125,239.954 c 3.669,3.038 8.904,4.769 14.413,4.769 z m -306.768,-212.915 0,340.37 208.55,-168.471 -208.55,-171.899 z m 403.668,173.042 208.332,167.415 0,-339.325 -208.332,171.91 z m -66.237,54.644 c -8.305,6.814 -19.168,10.57 -30.576,10.57 -11.451,0 -22.304,-3.734 -30.587,-10.516 l -47.765,-39.394 -228.503,184.561 0,0.587 c 0,1.753 1.502,3.244 3.276,3.244 l 605.491,0 c 1.741,0 3.232,-1.491 3.232,-3.255 l 0,-0.544 -228.306,-183.438 -46.262,38.185 z"
       id="path5"
       inkscape:connector-curvature="0"
       style="fill:#ffffff;fill-opacity:1" /></g></svg>