<?xml version="1.0" encoding="UTF-8" standalone="no"?>
<!-- Created with Inkscape (http://www.inkscape.org/) -->

<svg
   xmlns:dc="http://purl.org/dc/elements/1.1/"
   xmlns:cc="http://creativecommons.org/ns#"
   xmlns:rdf="http://www.w3.org/1999/02/22-rdf-syntax-ns#"
   xmlns:svg="http://www.w3.org/2000/svg"
   xmlns="http://www.w3.org/2000/svg"
   xmlns:sodipodi="http://sodipodi.sourceforge.net/DTD/sodipodi-0.dtd"
   xmlns:inkscape="http://www.inkscape.org/namespaces/inkscape"
   id="svg2"
   version="1.1"
   inkscape:version="0.91 r13725"
   width="640"
   height="640"
   viewBox="0 0 640 640"
   sodipodi:docname="facebook.svg">
  <metadata
     id="metadata8">
    <rdf:RDF>
      <cc:Work
         rdf:about="">
        <dc:format>image/svg+xml</dc:format>
        <dc:type
           rdf:resource="http://purl.org/dc/dcmitype/StillImage" />
        <dc:title></dc:title>
      </cc:Work>
    </rdf:RDF>
  </metadata>
  <defs
     id="defs6" />
  <sodipodi:namedview
     pagecolor="#ffffff"
     bordercolor="#666666"
     borderopacity="1"
     objecttolerance="10"
     gridtolerance="10"
     guidetolerance="10"
     inkscape:pageopacity="0"
     inkscape:pageshadow="2"
     inkscape:window-width="1301"
     inkscape:window-height="744"
     id="namedview4"
     showgrid="false"
     inkscape:zoom="0.36875"
     inkscape:cx="-86.779657"
     inkscape:cy="320"
     inkscape:window-x="65"
     inkscape:window-y="24"
     inkscape:window-maximized="1"
     inkscape:current-layer="layer1" />
  <g
     inkscape:groupmode="layer"
     id="layer1"
     inkscape:label="Layer 1"
     style="display:inline">
    <path
       style="fill:#ffffff;fill-opacity:1"
       d="m 75.23049,598.04736 c -14.059506,-3.78355 -26.388035,-14.58471 -31.7258,-27.79532 l -2.87969,-7.12704 0,-243.125 0,-243.125 3.015611,-7.5 c 4.124935,-10.25895 15.475439,-21.609454 25.734389,-25.734389 l 7.5,-3.015611 243.125,0 243.125,0 7.5,3.015611 c 10.25895,4.124935 21.60945,15.475439 25.73439,25.734389 l 3.01561,7.5 0.33219,239.375 c 0.23306,167.94626 -0.0711,241.32369 -1.01948,245.90551 -3.66631,17.71351 -16.72213,31.3352 -34.46229,35.95593 -10.6323,2.76936 -478.693916,2.70803 -488.99493,-0.0641 z m 337.26951,-162.42236 0,-93.125 35,0 35,0 0,-34.375 0,-34.375 -35.10536,0 -35.10537,0 0.41787,-20.9375 c 0.36408,-18.24282 0.74231,-21.50056 2.93882,-25.3125 5.13548,-8.91234 19.73975,-12.5 50.88375,-12.5 l 15.97029,0 0,-34.56968 0,-34.56967 -34.6875,0.7542 c -101.34925,2.20362 -115.30706,14.98261 -115.31145,105.57265 l -0.001,21.5625 -23.125,0 -23.125,0 0,34.375 0,34.375 23.125,0 23.125,0 0,93.125 0,93.125 40,0 40,0 0,-93.125 z"
       id="path4138"
       inkscape:connector-curvature="0" />
  </g>
</svg>
