<?xml version="1.0" encoding="UTF-8" standalone="no"?>
<!-- Created with Inkscape (http://www.inkscape.org/) -->

<svg
   xmlns:dc="http://purl.org/dc/elements/1.1/"
   xmlns:cc="http://creativecommons.org/ns#"
   xmlns:rdf="http://www.w3.org/1999/02/22-rdf-syntax-ns#"
   xmlns:svg="http://www.w3.org/2000/svg"
   xmlns="http://www.w3.org/2000/svg"
   xmlns:sodipodi="http://sodipodi.sourceforge.net/DTD/sodipodi-0.dtd"
   xmlns:inkscape="http://www.inkscape.org/namespaces/inkscape"
   id="svg2"
   version="1.1"
   inkscape:version="0.91 r13725"
   width="320"
   height="320"
   viewBox="0 0 320 320"
   sodipodi:docname="twitter.svg">
  <metadata
     id="metadata8">
    <rdf:RDF>
      <cc:Work
         rdf:about="">
        <dc:format>image/svg+xml</dc:format>
        <dc:type
           rdf:resource="http://purl.org/dc/dcmitype/StillImage" />
        <dc:title></dc:title>
      </cc:Work>
    </rdf:RDF>
  </metadata>
  <defs
     id="defs6" />
  <sodipodi:namedview
     pagecolor="#ffffff"
     bordercolor="#666666"
     borderopacity="1"
     objecttolerance="10"
     gridtolerance="10"
     guidetolerance="10"
     inkscape:pageopacity="0"
     inkscape:pageshadow="2"
     inkscape:window-width="1301"
     inkscape:window-height="744"
     id="namedview4"
     showgrid="false"
     inkscape:zoom="1.475"
     inkscape:cx="-51.510309"
     inkscape:cy="205.40661"
     inkscape:window-x="65"
     inkscape:window-y="24"
     inkscape:window-maximized="1"
     inkscape:current-layer="layer1" />
  <g
     inkscape:groupmode="layer"
     id="layer1"
     inkscape:label="Layer 1"
     style="display:inline">
    <path
       style="fill:#fff;fill-opacity:1"
       d="m 72.040556,286.31175 c -17.334012,-3.02478 -34.188599,-8.56689 -50.790556,-16.7009 l -13.125,-6.4305 14.464347,-0.81684 c 7.955392,-0.44926 16.392892,-1.20776 18.750001,-1.68555 8.501309,-1.7232 25.677692,-7.24626 32.410652,-10.42162 13.142196,-6.19804 27.25792,-16.42513 22.8125,-16.52804 -0.515625,-0.0125 -4.715571,-0.82238 -9.333214,-1.80098 -18.427529,-3.90526 -35.740222,-16.59632 -43.435326,-31.84023 -2.086678,-4.13369 -3.79396,-7.81309 -3.79396,-8.17644 0,-0.36336 4.359375,-0.66833 9.6875,-0.67771 5.328125,-0.01 10.953125,-0.35625 12.5,-0.7708 3.390516,-0.90862 3.767324,-4.21214 0.480446,-4.21214 -4.787096,0 -20.493261,-9.12966 -27.138827,-15.77523 -10.648653,-10.64866 -16.415985,-22.43015 -18.68893,-38.17768 l -0.84118,-5.8279 7.937996,2.85258 c 8.888099,3.19402 19.812995,5.13749 19.812995,3.52462 0,-0.58124 -3.132414,-4.13133 -6.960919,-7.88909 -7.805151,-7.66093 -14.342717,-18.47288 -17.306415,-28.621676 -3.630474,-12.432078 -1.92808,-33.063633 3.61226,-43.777466 l 1.843784,-3.565487 10.343145,10.646765 c 9.76441,10.051042 22.73466,20.702705 34.194171,28.081558 20.835114,13.415866 52.732434,24.207366 79.028834,26.737036 l 9.12986,0.87827 -0.82043,-9.23065 c -2.82089,-31.737255 17.0194,-59.904646 47.81611,-67.884879 18.8905,-4.895018 41.40694,0.449797 55.9966,13.292132 2.95989,2.605403 6.25065,4.737097 7.31279,4.737097 3.53587,0 22.58405,-6.492766 29.97981,-10.218929 7.26221,-3.658871 7.29059,-3.662382 6.3887,-0.790632 -1.83336,5.837749 -9.12603,15.634856 -16.82268,22.599917 -4.3487,3.935358 -7.5342,7.527732 -7.07888,7.983054 1.01591,1.01591 12.49149,-1.360051 23.11061,-4.784935 4.34079,-1.399995 8.11622,-2.32157 8.38985,-2.047944 0.88556,0.885562 -12.29688,15.273847 -20.9697,22.887884 l -8.4375,7.407439 0,13.971996 c 0,51.45458 -29.56423,108.43492 -73.125,140.93685 -12.39315,9.24687 -36.48194,21.67865 -49.83086,25.71676 -27.8237,8.41683 -61.733801,10.89712 -87.503584,6.40029 z"
       id="path4138"
       inkscape:connector-curvature="0" />
  </g>
</svg>
